<?xml version="1.0" encoding="utf-8"?>
<!-- Generator: Adobe Illustrator 26.0.0, SVG Export Plug-In . SVG Version: 6.00 Build 0)  -->
<svg version="1.1" id="Layer_1" xmlns="http://www.w3.org/2000/svg" xmlns:xlink="http://www.w3.org/1999/xlink" x="0px" y="0px"
	 viewBox="0 0 2560 992.78" style="enable-background:new 0 0 2560 992.78;" xml:space="preserve">
<style type="text/css">
	.st0{fill:#6149cd;}
	.st1{fill:#6149CD;}
</style>
<g>
	<g>
		<g>
			<path class="st0" d="M1130.67,178.38c29.74-40.88,95.04-61.32,195.87-61.32l156.7-0.68v85.16h-165.56
				c-43.16,0.91-74.84,10.22-95.04,27.94c-20.22,17.71-31.46,48.37-33.73,91.97l294.33-0.68v84.48h-294.33v200.3h-102.88V380.72
				C1086.04,286.7,1100.91,219.25,1130.67,178.38z"/>
			<path class="st0" d="M1528.19,205.63v-89.25h99.47v89.25H1528.19z M1528.19,605.55V246.5h99.47v359.05H1528.19z"/>
			<path class="st0" d="M2075.27,318.03v145.1c-0.47,35.93,7.75,56.83,24.51,62.7c16.83,5.94,40,8.88,69.51,8.88h6.14v70.85h-86.54
				c-35.86,0-62.9-10.02-81.07-29.98c-18.16-19.97-27.24-47.21-27.24-81.73V318.03H1826.6v287.53h-98.09V318.03h-68.11v-71.52h68.11
				v-11.62c0-39,3.94-68.31,11.89-87.88c7.95-19.5,36.73-29.51,86.21-29.98l89.95-0.67v69.51c-1.87,0.47-4.14,0.53-6.81,0.33
				c-2.74-0.2-5.68-0.33-8.88-0.33c-3.61,0-7.48-0.13-11.55-0.33c-4.14-0.27-7.95-0.33-11.62-0.33c-8.15,0-15.89,0.53-23.17,1.67
				c-7.28,1.14-12.69,3.34-16.36,6.48c-5.01,3.67-8.28,8.41-9.88,14.29c-1.54,5.94-2.34,11.82-2.34,17.76v6.08
				c0,1.87,0.2,3.67,0.67,5.48v10.22l87.21-0.67h66.78V116.37h94.69v130.15h100.16v71.52H2075.27z"/>
			<path class="st0" d="M2311.67,116.38V246.5h84.49c46.33,0.92,82.78,10.46,109.34,28.62c26.57,18.17,40.08,52.69,40.54,103.55
				v226.87h-95.38V388.89c0-22.71-4.55-38.83-13.63-48.37c-9.09-9.53-25.67-14.31-49.74-14.31l-75.62-0.68v280.01h-94.02V116.38
				H2311.67z"/>
		</g>
		<g>
			<path class="st0" d="M1086.04,876.42V714.3h164.03v28.3h-126.3v42.71h68.18v29.52h-68.18v61.58H1086.04z"/>
			<path class="st0" d="M1268.78,876.42l91.34-162.12h36.5l92.94,162.12h-42.41l-19.48-35.5h-102.68l-18.86,35.5H1268.78z
				 M1341.33,811.69h70.94l-35.12-65.95L1341.33,811.69z"/>
			<path class="st0" d="M1689.85,743.21h-101.76v102.76h101.76v-34.89l37.73,7.82v19.17c0,14.67-2.73,24.74-8.21,30.22
				c-5.73,5.42-16.39,8.13-32,8.13h-96.82c-15.55,0-26.23-2.71-32.07-8.13c-5.42-5.53-8.13-15.6-8.13-30.22v-85.43
				c0-14.57,2.71-24.62,8.13-30.14c5.78-5.47,16.47-8.2,32.07-8.2h96.82c15.6,0,26.27,2.73,32,8.2c5.48,5.48,8.21,15.52,8.21,30.14
				v15.41l-37.73,5.98V743.21z"/>
			<path class="st0" d="M1917.36,743.21v133.21h-37.73V743.21h-74.38V714.3h186.88v28.91H1917.36z"/>
			<path class="st0" d="M2062.96,752.64c0-14.57,2.72-24.62,8.13-30.14c5.78-5.47,16.47-8.2,32.07-8.2h119.45
				c15.75,0,26.31,2.73,31.68,8.2c5.68,5.37,8.52,15.41,8.52,30.14v85.43c0,14.78-2.84,24.84-8.52,30.22
				c-5.42,5.42-15.98,8.13-31.68,8.13h-119.45c-15.54,0-26.23-2.71-32.07-8.13c-5.42-5.53-8.13-15.6-8.13-30.22V752.64z
				 M2100.69,845.97h124.39V743.21h-124.39V845.97z"/>
			<path class="st0" d="M2353.79,876.42V714.3h138.5c12.73,0,22.16,2.43,28.3,7.29c5.62,4.96,8.43,13.01,8.43,24.16v38.04
				c0,10.89-2.81,18.84-8.43,23.85c-5.94,5.01-15.37,7.52-28.3,7.52h-21.01l74.77,61.27h-54.06l-65.34-61.27h-35.82v61.27H2353.79z
				 M2475.65,742.29h-84.82v45.25h84.82c6.59,0,11.09-0.94,13.5-2.84c2.3-1.99,3.45-5.34,3.45-10.04v-19.48
				c0-4.81-1.15-8.16-3.45-10.05C2486.74,743.24,2482.24,742.29,2475.65,742.29z"/>
		</g>
	</g>
	<g>
		<path class="st0" d="M945.1,457.75L526.18,38.82c-21.34-21.34-55.95-21.34-77.29,0L297.12,190.59h210.6
			c77.17,0,139.73,62.56,139.73,139.73v93.26h111.17v88.39H647.44v165.97c0,17.32,14.04,31.36,31.36,31.36h92.03L945.1,535.04
			C966.45,513.69,966.45,479.09,945.1,457.75z"/>
		<path class="st0" d="M29.96,535.04L206.23,711.3V511.97v-88.39v-142.1L29.96,457.75C8.62,479.09,8.62,513.69,29.96,535.04z"/>
		<path class="st0" d="M526.2,710.05V303.17c0-14.66-12-26.66-26.66-26.66h-140.8c-17.25,0-31.28,14.03-31.28,31.36v116.53
			l131.65-0.82v88.39H327.47v320.56l121.42,121.42c21.34,21.34,55.95,21.34,77.29,0l158.74-158.74h-73.54
			C564.34,795.22,526.2,757.09,526.2,710.05z"/>
	</g>
</g>
</svg>
