<?xml version="1.0" encoding="utf-8"?>
<!-- Generator: Adobe Illustrator 26.0.0, SVG Export Plug-In . SVG Version: 6.00 Build 0)  -->
<svg version="1.1" id="Layer_1" xmlns="http://www.w3.org/2000/svg" xmlns:xlink="http://www.w3.org/1999/xlink" x="0px" y="0px"
	 viewBox="0 0 1452.16 1440" style="enable-background:new 0 0 1452.16 1440;" xml:space="preserve">
<style type="text/css">
	.st0{fill:#FFFFFF;}
	.st1{fill:#6149CD;}
</style>
<g>
	<g>
		<path class="st0" d="M1401.87,662.92L783.16,44.21c-31.52-31.52-82.63-31.52-114.15,0L444.85,268.36h311.04
			c113.97,0,206.36,92.39,206.36,206.36v137.74h164.19v130.55H962.25v245.13c0,25.58,20.74,46.32,46.32,46.32h135.92l257.38-257.39
			C1433.4,745.55,1433.4,694.45,1401.87,662.92z"/>
		<path class="st0" d="M50.29,777.07l260.32,260.32V743.01V612.47V402.6L50.29,662.92C18.77,694.45,18.77,745.55,50.29,777.07z"/>
		<path class="st0" d="M783.19,1035.56V434.62c0-21.66-17.72-39.37-39.37-39.37H535.87c-25.48,0-46.2,20.72-46.2,46.32v172.11
			l194.44-1.22v130.55H489.67v473.45l179.33,179.33c31.52,31.52,82.63,31.52,114.15,0l234.44-234.44H908.99
			C839.51,1161.35,783.19,1105.03,783.19,1035.56z"/>
	</g>
</g>
</svg>
