<?xml version="1.0" encoding="utf-8"?>
<!-- Generator: Adobe Illustrator 26.0.0, SVG Export Plug-In . SVG Version: 6.00 Build 0)  -->
<svg version="1.1" id="Layer_1" xmlns="http://www.w3.org/2000/svg" xmlns:xlink="http://www.w3.org/1999/xlink" x="0px" y="0px"
	 viewBox="0 0 2560 992.78" style="enable-background:new 0 0 2560 992.78;" xml:space="preserve">
<style type="text/css">
	.st0{fill:#FFFFFF;}
	.st1{fill:#6149CD;}
</style>
<g>
	<g>
		<g>
			<path class="st1" d="M1131.35,179.84c29.61-40.69,94.6-61.03,194.97-61.03l155.98-0.68v84.77h-164.79
				c-42.96,0.91-74.5,10.17-94.61,27.81c-20.12,17.63-31.31,48.14-33.57,91.55l292.97-0.68v84.09h-292.97v199.38h-102.4V381.26
				C1086.93,287.67,1101.73,220.53,1131.35,179.84z"/>
			<path class="st1" d="M1527.05,206.97v-88.84h99.01v88.84H1527.05z M1527.05,605.05V247.65h99.01v357.39H1527.05z"/>
			<path class="st1" d="M2071.61,318.85v144.43c-0.47,35.76,7.71,56.56,24.39,62.41c16.75,5.92,39.81,8.84,69.19,8.84h6.11v70.52
				h-86.14c-35.69,0-62.61-9.97-80.69-29.84c-18.08-19.87-27.12-46.99-27.12-81.36V318.85h-153.27v286.21h-97.64V318.85h-67.8
				v-71.19h67.8v-11.57c0-38.82,3.92-68,11.83-87.47c7.91-19.41,36.56-29.38,85.81-29.84l89.53-0.67v69.19
				c-1.86,0.46-4.12,0.53-6.78,0.33c-2.72-0.2-5.65-0.33-8.84-0.33c-3.59,0-7.44-0.13-11.5-0.33c-4.12-0.27-7.91-0.33-11.57-0.33
				c-8.11,0-15.82,0.53-23.06,1.66c-7.25,1.13-12.63,3.32-16.28,6.45c-4.99,3.66-8.24,8.38-9.84,14.23
				c-1.53,5.91-2.33,11.76-2.33,17.68v6.05c0,1.86,0.2,3.66,0.66,5.45v10.17l86.81-0.66h66.47V118.11h94.25v129.55h99.7v71.19
				H2071.61z"/>
			<path class="st1" d="M2306.92,118.12v129.53h84.1c46.11,0.92,82.4,10.41,108.84,28.49c26.45,18.08,39.9,52.45,40.35,103.08
				v225.83h-94.94V389.39c0-22.6-4.52-38.65-13.57-48.15c-9.05-9.49-25.55-14.24-49.51-14.24l-75.28-0.68v278.72h-93.59V118.12
				H2306.92z"/>
		</g>
		<g>
			<path class="st1" d="M1086.93,874.67V713.3h163.28v28.17h-125.72v42.52h67.86v29.39h-67.86v61.3H1086.93z"/>
			<path class="st1" d="M1268.83,874.67l90.92-161.37h36.34l92.51,161.37h-42.21L1427,839.33h-102.21l-18.78,35.34H1268.83z
				 M1341.05,810.24h70.61l-34.96-65.64L1341.05,810.24z"/>
			<path class="st1" d="M1687.96,742.08h-101.29v102.29h101.29v-34.73l37.56,7.78v19.09c0,14.61-2.72,24.63-8.17,30.08
				c-5.7,5.39-16.32,8.09-31.85,8.09h-96.37c-15.48,0-26.11-2.7-31.92-8.09c-5.4-5.5-8.09-15.52-8.09-30.08v-85.04
				c0-14.5,2.7-24.5,8.09-30c5.75-5.44,16.39-8.17,31.92-8.17h96.37c15.53,0,26.15,2.72,31.85,8.17c5.45,5.45,8.17,15.45,8.17,30
				v15.34l-37.56,5.95V742.08z"/>
			<path class="st1" d="M1914.42,742.08v132.59h-37.56V742.08h-74.04V713.3h186.02v28.78H1914.42z"/>
			<path class="st1" d="M2059.36,751.46c0-14.5,2.7-24.5,8.09-30c5.75-5.44,16.4-8.17,31.92-8.17h118.9
				c15.68,0,26.19,2.72,31.54,8.17c5.65,5.35,8.48,15.34,8.48,30v85.04c0,14.71-2.83,24.73-8.48,30.08
				c-5.39,5.39-15.91,8.09-31.54,8.09h-118.9c-15.47,0-26.11-2.7-31.92-8.09c-5.39-5.5-8.09-15.52-8.09-30.08V751.46z
				 M2096.91,844.36h123.82V742.08h-123.82V844.36z"/>
			<path class="st1" d="M2348.85,874.67V713.3h137.86c12.67,0,22.06,2.42,28.17,7.25c5.59,4.93,8.39,12.95,8.39,24.04v37.86
				c0,10.84-2.8,18.75-8.39,23.74c-5.91,4.98-15.3,7.48-28.17,7.48h-20.92l74.42,60.99h-53.81l-65.04-60.99h-35.65v60.99H2348.85z
				 M2470.15,741.16h-84.43v45.04h84.43c6.56,0,11.04-0.94,13.44-2.83c2.29-1.98,3.43-5.31,3.43-10v-19.39c0-4.78-1.14-8.12-3.43-10
				C2481.19,742.1,2476.71,741.16,2470.15,741.16z"/>
		</g>
	</g>
	<g>
		<path class="st1" d="M946.64,457.92l-417-417c-21.24-21.24-55.69-21.24-76.93,0L301.64,192h209.63
			c76.81,0,139.08,62.27,139.08,139.08v92.83h110.66v87.99H650.35v165.21c0,17.24,13.98,31.22,31.22,31.22h91.61l173.47-173.47
			C967.89,513.61,967.89,479.17,946.64,457.92z"/>
		<path class="st1" d="M35.72,534.86l175.45,175.45V511.9v-87.99V282.47L35.72,457.92C14.47,479.17,14.47,513.61,35.72,534.86z"/>
		<path class="st1" d="M529.67,709.07V304.06c0-14.6-11.94-26.54-26.54-26.54H362.98c-17.17,0-31.14,13.97-31.14,31.22v116
			l131.05-0.82v87.99H331.85v319.09l120.86,120.86c21.25,21.25,55.69,21.25,76.93,0l158.01-158.01h-73.2
			C567.63,793.85,529.67,755.89,529.67,709.07z"/>
	</g>
</g>
</svg>
