<?xml version="1.0" encoding="utf-8"?>
<!-- Generator: Adobe Illustrator 26.0.0, SVG Export Plug-In . SVG Version: 6.00 Build 0)  -->
<svg version="1.1" id="Layer_1" xmlns="http://www.w3.org/2000/svg" xmlns:xlink="http://www.w3.org/1999/xlink" x="0px" y="0px"
	 viewBox="0 0 1456.09 1440" style="enable-background:new 0 0 1456.09 1440;" xml:space="preserve">
<style type="text/css">
	.st0{fill:#FFFFFF;}
	.st1{fill:#6149CD;}
</style>
<g>
	<g>
		<path class="st1" d="M1413.33,662.12L785.92,34.71c-31.96-31.96-83.79-31.96-115.75,0l-227.3,227.3h315.41
			c115.57,0,209.26,93.69,209.26,209.26v139.68h166.5v132.38h-166.5v248.57c0,25.94,21.03,46.97,46.97,46.97h137.83l261-261
			C1445.3,745.91,1445.3,694.09,1413.33,662.12z"/>
		<path class="st1" d="M42.76,777.88l263.98,263.98V743.34V610.95V398.14L42.76,662.12C10.79,694.09,10.79,745.91,42.76,777.88z"/>
		<path class="st1" d="M785.96,1039.99V430.61c0-21.96-17.97-39.92-39.92-39.92H535.16c-25.83,0-46.85,21.01-46.85,46.97v174.53
			l197.17-1.24v132.38H488.31v480.1l181.85,181.85c31.97,31.97,83.79,31.97,115.75,0l237.74-237.74H913.52
			C843.07,1167.55,785.96,1110.44,785.96,1039.99z"/>
	</g>
</g>
</svg>
